<svg width="33" height="32" viewBox="0 0 33 32" fill="none" xmlns="http://www.w3.org/2000/svg">
<path fill-rule="evenodd" clip-rule="evenodd" d="M22.5922 12.0228C26.4092 10.1043 29.2896 6.7974 26.6689 1.62722L24.4707 2.36172L24.6318 0C24.3153 0.0523061 23.9628 0.0916236 23.5859 0.133667C20.7095 0.454524 16.4098 0.934152 15.7821 8.55729C15.2382 3.77278 12.9501 -1.00262 6.56697 0.320655L6.70073 2.63446L4.46345 1.86098C4.43111 2.18016 4.37685 2.53058 4.31882 2.90531L4.31881 2.90535L4.3188 2.90543L4.3188 2.90546C3.88558 5.70297 3.24268 9.85447 9.94576 12.4682C5.33716 11.8251 0.461991 12.8744 0 19.1468L2.26171 19.653L0.904072 21.5922C1.20214 21.7109 1.52425 21.8592 1.86868 22.0178L1.86878 22.0179C4.19218 23.0878 7.53166 24.6258 11.3651 20.686C9.64837 24.3638 9.53154 28.4645 14.4708 30.9695L15.8099 29.0778L17.0757 31.0782C17.3001 30.849 17.5611 30.609 17.8402 30.3524L17.8402 30.3524L17.8404 30.3522L17.8404 30.3522C19.9903 28.3758 23.2134 25.4126 19.0475 18.7683C22.2326 22.3862 26.8475 25.003 31.3288 20.2589L29.8946 18.4383L32.1719 17.7918C32.0157 17.5115 31.8595 17.1931 31.6926 16.8526C30.5073 14.4348 28.7762 10.9039 22.5922 12.0228ZM14.5658 15.4275C14.5934 15.4607 14.6225 15.4927 14.6528 15.5234C14.008 16.2451 13.2095 16.9793 12.3874 17.6638C11.0797 18.7524 9.70545 19.7206 8.77747 20.3195C8.80783 20.3911 8.81689 20.4726 8.7986 20.5543C8.75201 20.7625 8.54547 20.8935 8.33729 20.8469C8.1291 20.8003 7.99811 20.5938 8.0447 20.3856C8.0913 20.1774 8.29784 20.0464 8.50602 20.093C8.58713 20.1111 8.65653 20.1536 8.70826 20.2109C9.63241 19.6144 11.0021 18.6495 12.305 17.5648C13.1307 16.8774 13.9269 16.1441 14.5658 15.4275ZM15.0017 15.789C14.1736 17.3077 13.5393 18.833 13.1091 20.138C12.8335 20.9742 12.6413 21.721 12.5358 22.3186C12.483 22.6173 12.4518 22.8797 12.4428 23.0979L12.4413 23.1409C12.3204 23.1411 12.2015 23.1979 12.1264 23.304C12.0031 23.4782 12.0443 23.7192 12.2185 23.8425C12.3926 23.9658 12.6337 23.9245 12.7569 23.7504C12.8802 23.5763 12.839 23.3352 12.6648 23.212C12.6347 23.1907 12.6027 23.1743 12.5695 23.1626C12.57 23.1433 12.5706 23.1235 12.5714 23.1032C12.5801 22.8925 12.6105 22.636 12.6626 22.341C12.7668 21.751 12.9571 21.0103 13.2314 20.1783C13.6597 18.8789 14.2918 17.3594 15.1167 15.8469C15.0775 15.8292 15.0391 15.8098 15.0017 15.789ZM15.6471 23.8803L15.7232 15.9833L15.7529 15.9836C15.7862 15.9836 15.8192 15.9825 15.852 15.9805L15.7759 23.8815C15.8301 23.8911 15.8832 23.9126 15.9311 23.9465C16.1052 24.0698 16.1464 24.3109 16.0232 24.485C15.8999 24.6591 15.6588 24.7003 15.4847 24.5771C15.3106 24.4538 15.2694 24.2127 15.3926 24.0386C15.4552 23.9503 15.5481 23.8961 15.6471 23.8803ZM17.7554 19.006C17.4014 17.8553 16.98 16.7165 16.5031 15.7896C16.5408 15.7686 16.5775 15.7461 16.6131 15.7221C17.098 16.6626 17.5234 17.8137 17.8785 18.9682C18.3788 20.5945 18.7422 22.2358 18.937 23.323C19.0148 23.3226 19.0934 23.3456 19.1618 23.394C19.3359 23.5173 19.3771 23.7583 19.2539 23.9325C19.1306 24.1066 18.8895 24.1478 18.7154 24.0246C18.5413 23.9013 18.5 23.6602 18.6233 23.4861C18.6713 23.4182 18.7373 23.3706 18.8102 23.3449C18.6161 22.2623 18.2539 20.6264 17.7554 19.006ZM16.7503 15.6458L16.7369 15.6298L16.7392 15.6278L16.7503 15.6458ZM20.5557 18.4926C19.4269 17.7104 18.1449 16.6702 16.9241 15.4463C16.9523 15.4136 16.9791 15.3797 17.0045 15.3446C18.2226 16.5672 19.5026 17.6062 20.629 18.3868C21.349 18.8857 22.0053 19.2784 22.5415 19.5456C22.8097 19.6792 23.047 19.7811 23.2466 19.8492C23.2658 19.8557 23.2846 19.8619 23.303 19.8678C23.3236 19.8393 23.3484 19.8132 23.3774 19.7904C23.545 19.6584 23.7878 19.6872 23.9199 19.8548C24.0519 20.0224 24.023 20.2652 23.8554 20.3973C23.6879 20.5293 23.445 20.5004 23.313 20.3328C23.2325 20.2307 23.2118 20.1006 23.2458 19.9847L23.205 19.971C22.9983 19.9005 22.7556 19.7961 22.4841 19.6608C21.941 19.3902 21.2793 18.9941 20.5557 18.4926ZM24.8641 17.1201L17.2578 14.7904C17.2675 14.7486 17.2755 14.7062 17.2818 14.6632L24.9018 16.997C24.9264 16.9477 24.962 16.903 25.0081 16.8667C25.1757 16.7347 25.4186 16.7635 25.5506 16.9311C25.6826 17.0987 25.6538 17.3416 25.4862 17.4736C25.3186 17.6056 25.0757 17.5767 24.9437 17.4092C24.8767 17.3241 24.8511 17.2196 24.8641 17.1201ZM20.788 13.7159C19.5422 13.7295 18.2882 13.8159 17.2422 14.0253C17.2306 13.9835 17.2173 13.9423 17.2023 13.902C18.2653 13.6877 19.5349 13.6008 20.7866 13.5872C22.488 13.5687 24.165 13.6857 25.2628 13.8073C25.2845 13.7326 25.3289 13.6637 25.3947 13.6119C25.5622 13.4799 25.8051 13.5087 25.9371 13.6763C26.0691 13.8439 26.0403 14.0867 25.8727 14.2188C25.7051 14.3508 25.4623 14.3219 25.3302 14.1543C25.2788 14.089 25.2518 14.0123 25.2479 13.9352C24.1546 13.8142 22.4832 13.6975 20.788 13.7159ZM21.366 11.1694C20.2029 11.9999 18.7208 12.892 17.0801 13.6469C17.0578 13.6096 17.034 13.5733 17.0087 13.5381C18.6483 12.7852 20.1298 11.8938 21.2912 11.0646C22.0041 10.5556 22.5954 10.0706 23.0282 9.65622C23.2446 9.44899 23.4206 9.26009 23.5522 9.09523C23.5648 9.07937 23.5771 9.06377 23.5888 9.04842C23.569 9.01944 23.5528 8.98724 23.5411 8.95225C23.4735 8.74991 23.5827 8.53107 23.785 8.46346C23.9874 8.39585 24.2062 8.50508 24.2738 8.70741C24.3414 8.90975 24.2322 9.12859 24.0299 9.1962C23.9065 9.2374 23.7771 9.21293 23.6795 9.14171L23.6528 9.17555C23.5166 9.34622 23.3363 9.53941 23.1172 9.74921C22.679 10.1689 22.0826 10.6578 21.366 11.1694ZM21.5303 6.65053L16.6493 13.1798C16.6143 13.1548 16.5783 13.1313 16.5412 13.1093L21.4271 6.57349C21.3891 6.53366 21.3591 6.48504 21.3405 6.42937C21.2729 6.22703 21.3821 6.00819 21.5844 5.94058C21.7868 5.87297 22.0056 5.98219 22.0732 6.18453C22.1408 6.38687 22.0316 6.60571 21.8292 6.67332C21.7265 6.70764 21.6196 6.69639 21.5303 6.65053ZM16.9489 9.33647C16.5227 10.5653 16.1682 11.8296 16.0222 12.9168C15.9803 12.9094 15.9377 12.9037 15.8946 12.8998C16.0427 11.7974 16.401 10.5234 16.8273 9.29428C17.3849 7.68668 18.0618 6.14794 18.5471 5.15581C18.4842 5.11014 18.4343 5.04507 18.4078 4.96566C18.3402 4.76332 18.4494 4.54449 18.6517 4.47688C18.8541 4.40927 19.0729 4.51849 19.1405 4.72083C19.2081 4.92317 19.0989 5.142 18.8966 5.20961C18.8177 5.23596 18.7364 5.23545 18.6625 5.21305C18.1791 6.20112 17.5045 7.73474 16.9489 9.33647ZM14.3892 7.93562C14.9026 9.31909 15.3905 11.048 15.6877 12.8947C15.6443 12.8965 15.6014 12.9001 15.559 12.9054C15.2631 11.0716 14.7784 9.35443 14.2685 7.98041C13.9637 7.15916 13.6503 6.46153 13.3636 5.93544C13.2202 5.67236 13.084 5.45304 12.9593 5.28292C12.9473 5.26656 12.9354 5.2507 12.9237 5.23532C12.8905 5.24691 12.8552 5.25413 12.8184 5.25626C12.6054 5.26857 12.4228 5.1059 12.4104 4.89292C12.3981 4.67994 12.5608 4.49731 12.7738 4.48499C12.9868 4.47268 13.1694 4.63535 13.1817 4.84833C13.1892 4.97814 13.1317 5.09667 13.0375 5.17224L13.0631 5.2068C13.1922 5.38291 13.3315 5.60746 13.4767 5.87383C13.7671 6.40663 14.0829 7.11015 14.3892 7.93562ZM10.0708 6.59469L15.1102 13.0329C15.0704 13.0512 15.0314 13.0711 14.9934 13.0926L9.96941 6.67412C9.92102 6.70038 9.86622 6.71667 9.80761 6.72006C9.59463 6.73237 9.412 6.5697 9.39968 6.35672C9.38737 6.14374 9.55005 5.9611 9.76303 5.94879C9.97601 5.93648 10.1586 6.09915 10.171 6.31213C10.1772 6.42024 10.1384 6.52052 10.0708 6.59469ZM11.4644 11.7193C12.4884 12.4177 13.5604 13.0616 14.534 13.4888C14.5071 13.5233 14.4816 13.559 14.4576 13.5958C13.4778 13.163 12.4075 12.5184 11.3919 11.8256C9.98619 10.8668 8.67816 9.81095 7.84758 9.08291C7.78703 9.13174 7.7112 9.1628 7.62763 9.16763C7.41465 9.17994 7.23201 9.01727 7.2197 8.80429C7.20739 8.59131 7.37006 8.40867 7.58304 8.39636C7.79602 8.38405 7.97866 8.54672 7.99097 8.7597C7.99577 8.8427 7.97399 8.92109 7.93302 8.98658C8.7602 9.7116 10.0639 10.764 11.4644 11.7193ZM9.46907 13.7141C10.8748 13.6051 12.5775 13.605 14.3464 13.7979C14.328 13.8383 14.3112 13.8797 14.2963 13.9219C12.549 13.7339 10.868 13.7348 9.47902 13.8425C8.60567 13.9103 7.84884 14.0202 7.26427 14.1516C6.97194 14.2173 6.72365 14.2881 6.52585 14.3613C6.50684 14.3684 6.48833 14.3754 6.47033 14.3825C6.47238 14.4176 6.46963 14.4535 6.46157 14.4895C6.41498 14.6977 6.20844 14.8287 6.00025 14.7821C5.79207 14.7355 5.66107 14.529 5.70767 14.3208C5.75426 14.1126 5.9608 13.9816 6.16899 14.0282C6.29586 14.0566 6.39407 14.1444 6.44088 14.2558L6.48114 14.2406C6.68591 14.1648 6.94006 14.0924 7.23604 14.0259C7.82806 13.8929 8.59124 13.7822 9.46907 13.7141ZM6.99476 17.4989L14.2128 14.564C14.2164 14.6086 14.2219 14.6528 14.2292 14.6963L7.04334 17.6182C7.05532 17.6719 7.05595 17.7291 7.04313 17.7864C6.99653 17.9946 6.78999 18.1256 6.58181 18.079C6.37362 18.0324 6.24263 17.8258 6.28922 17.6176C6.33582 17.4095 6.54236 17.2785 6.75054 17.3251C6.85621 17.3487 6.94199 17.4136 6.99476 17.4989ZM15.7529 15.7261C16.464 15.7261 17.0405 15.1496 17.0405 14.4385C17.0405 13.7273 16.464 13.1509 15.7529 13.1509C15.0418 13.1509 14.4653 13.7273 14.4653 14.4385C14.4653 15.1496 15.0418 15.7261 15.7529 15.7261Z" fill="#EF475F"/>
</svg>
